<?xml version="1.0" standalone="no"?>
<!DOCTYPE svg PUBLIC "-//W3C//DTD SVG 20010904//EN"
 "http://www.w3.org/TR/2001/REC-SVG-20010904/DTD/svg10.dtd">
<svg version="1.0" xmlns="http://www.w3.org/2000/svg"
 width="800.000000pt" height="600.000000pt" viewBox="0 0 800.000000 600.000000"
 preserveAspectRatio="xMidYMid meet">

<g transform="translate(0.000000,600.000000) scale(0.100000,-0.100000)"
fill="#000000" stroke="none">
<path d="M3065 4866 c31 -75 12 -160 -42 -185 -16 -8 -82 -14 -159 -17 -209
-6 -272 -26 -372 -120 -82 -78 -103 -131 -110 -275 -4 -95 -1 -118 22 -200 26
-90 84 -213 126 -266 l19 -25 12 26 c11 23 9 29 -9 49 -50 53 -77 161 -52 208
24 45 120 10 168 -61 27 -41 47 -52 37 -21 -6 20 -4 21 22 15 65 -16 68 -18
64 -63 -4 -65 6 -71 124 -71 100 0 104 1 124 26 12 15 21 33 21 40 0 17 49 42
73 37 12 -3 17 -14 17 -37 0 -17 5 -37 12 -44 13 -13 156 -17 174 -4 29 19 52
119 34 152 -9 17 -21 20 -90 20 -86 0 -120 -17 -120 -60 0 -17 -5 -19 -24 -14
-13 3 -34 1 -45 -6 -19 -9 -21 -8 -21 14 0 47 -22 56 -131 56 -94 0 -101 -2
-123 -25 -23 -24 -26 -25 -75 -13 l-51 11 -21 66 c-11 36 -23 101 -26 144 -7
94 -12 92 149 41 177 -57 345 -59 418 -4 24 18 25 18 58 -11 19 -17 36 -29 38
-27 2 3 -1 30 -6 61 -8 52 -6 62 18 114 24 52 27 70 27 163 0 100 -2 108 -34
167 -18 34 -41 69 -51 78 -18 16 -19 15 -26 -21 l-7 -37 -24 46 c-24 48 -76
90 -125 102 l-28 7 15 -36z m294 -844 c13 -24 -5 -114 -26 -129 -23 -18 -147
-17 -161 0 -17 20 1 117 24 134 11 8 45 13 86 13 54 0 69 -3 77 -18z m-310
-10 c12 -23 -2 -98 -24 -122 -16 -17 -31 -20 -110 -20 -110 0 -120 6 -109 76
11 74 27 84 139 84 80 0 96 -3 104 -18z"/>
<path d="M6532 4575 c0 -11 4 -31 8 -45 6 -20 8 -21 8 -5 0 11 -4 31 -8 45 -6
20 -8 21 -8 5z"/>
<path d="M6551 4484 c0 -11 3 -14 6 -6 3 7 2 16 -1 19 -3 4 -6 -2 -5 -13z"/>
<path d="M6570 4421 c0 -31 78 -262 133 -391 l16 -36 -37 3 -37 4 39 -21 c43
-22 60 -26 36 -9 -13 9 -13 10 0 6 8 -2 14 -10 12 -17 -1 -7 2 -18 8 -25 13
-15 14 -39 5 -140 -4 -48 -2 -86 4 -95 17 -25 24 -3 28 83 4 94 10 127 21 127
5 0 29 -14 54 -30 53 -35 78 -80 78 -140 0 -52 17 -49 38 5 8 22 17 42 19 44
7 9 52 -43 75 -86 l23 -45 58 4 c91 7 136 50 163 158 32 125 7 271 -59 349
l-23 28 -55 -101 c-59 -110 -136 -200 -165 -194 -37 7 -25 37 40 106 49 53 68
82 80 123 17 57 20 122 6 154 -5 13 -6 1 -3 -32 3 -30 0 -72 -7 -98 -13 -46
-32 -73 -25 -35 2 11 0 18 -6 15 -5 -4 -7 -10 -4 -15 3 -5 -4 -14 -15 -20 -15
-8 -20 -8 -20 2 0 9 -3 9 -10 -2 -9 -14 -14 -7 -11 13 1 5 -3 6 -9 2 -6 -3 -8
-10 -5 -15 3 -4 -3 -14 -12 -21 -15 -12 -16 -12 -10 6 7 20 7 20 -8 1 -8 -11
-15 -25 -15 -30 0 -6 5 -4 10 4 9 13 10 13 10 0 0 -13 1 -13 10 0 8 12 9 10 7
-7 -2 -12 -7 -26 -11 -30 -4 -5 -7 -3 -6 2 5 21 -1 29 -10 15 -6 -9 -10 -10
-10 -3 0 7 -9 17 -20 23 -16 9 -18 8 -14 -5 3 -8 9 -13 13 -10 4 2 8 -2 8 -10
0 -8 -3 -13 -5 -10 -3 3 -11 -3 -19 -13 -12 -16 -13 -16 -7 3 5 17 3 16 -17
-5 -13 -14 -21 -21 -16 -16 17 22 5 29 -13 7 -11 -13 -20 -18 -20 -12 0 7 -5
9 -10 6 -6 -4 -8 -10 -5 -15 3 -5 0 -12 -6 -16 -7 -4 -9 -3 -5 4 3 6 2 13 -4
17 -5 3 -10 0 -10 -7 0 -10 -2 -10 -9 1 -7 11 -10 11 -14 -3 -4 -14 -5 -14 -3
1 1 10 7 18 14 18 7 0 17 7 22 15 8 12 10 12 10 1 0 -10 3 -11 13 -2 8 6 18 7
22 3 5 -4 5 -2 1 5 -4 8 0 11 14 8 11 -2 18 0 15 5 -3 5 4 7 16 5 17 -3 19 -2
9 10 -7 8 -16 13 -20 10 -5 -3 -11 1 -14 7 -3 7 -4 4 -3 -7 2 -21 -22 -28 -36
-10 -5 6 -6 3 -3 -8 4 -13 1 -17 -12 -15 -9 2 -21 8 -25 13 -5 6 -5 -1 -1 -15
l7 -25 -23 20 c-13 11 -20 15 -17 9 4 -7 0 -17 -8 -24 -8 -7 -15 -18 -15 -24
0 -6 5 -4 10 4 7 12 9 10 7 -7 0 -12 -5 -19 -10 -16 -19 12 -107 212 -151 343
-25 74 -45 129 -46 121z m670 -296 c-5 -7 -6 -16 -2 -21 4 -5 -3 0 -16 11 -21
17 -21 21 -8 31 9 6 15 13 13 15 -1 2 4 -2 10 -10 8 -10 9 -18 3 -26z m-146
-34 c3 -5 -2 -15 -11 -22 -14 -12 -16 -12 -9 0 6 9 5 12 -5 9 -8 -3 -13 -11
-11 -18 3 -11 0 -11 -12 0 -14 10 -16 10 -16 -5 0 -23 -7 -17 -12 9 -2 15 3
20 25 21 15 1 30 5 34 8 8 9 11 9 17 -2z"/>
<path d="M7215 4130 c4 -6 11 -8 16 -5 14 9 11 15 -7 15 -8 0 -12 -5 -9 -10z"/>
<path d="M6380 4315 c13 -14 26 -25 28 -25 3 0 -5 11 -18 25 -13 14 -26 25
-28 25 -3 0 5 -11 18 -25z"/>
<path d="M6812 4320 c0 -14 2 -19 5 -12 2 6 2 18 0 25 -3 6 -5 1 -5 -13z"/>
<path d="M6793 4273 c-4 -10 -25 -38 -47 -61 -23 -24 -45 -51 -49 -60 -5 -10
16 10 47 42 30 32 57 67 59 77 6 24 -1 25 -10 2z"/>
<path d="M6558 4233 c7 -3 16 -2 19 1 4 3 -2 6 -13 5 -11 0 -14 -3 -6 -6z"/>
<path d="M6842 4165 c0 -16 2 -22 5 -12 2 9 2 23 0 30 -3 6 -5 -1 -5 -18z"/>
<path d="M6891 4147 c-29 -35 -30 -38 -7 -17 24 22 52 60 44 60 -2 0 -18 -19
-37 -43z"/>
<path d="M6290 4080 c0 -5 4 -10 9 -10 5 0 16 -6 23 -14 45 -44 197 -92 213
-67 4 7 -10 11 -39 12 -63 2 -88 11 -163 62 -24 15 -43 23 -43 17z"/>
<path d="M6946 4078 c3 -5 10 -6 15 -3 13 9 11 12 -6 12 -8 0 -12 -4 -9 -9z"/>
<path d="M6250 4006 c0 -2 8 -10 18 -17 15 -13 16 -12 3 4 -13 16 -21 21 -21
13z"/>
<path d="M6300 3966 c0 -3 9 -10 20 -16 11 -6 20 -8 20 -6 0 3 -9 10 -20 16
-11 6 -20 8 -20 6z"/>
<path d="M6475 3930 c3 -5 8 -10 11 -10 2 0 4 5 4 10 0 6 -5 10 -11 10 -5 0
-7 -4 -4 -10z"/>
<path d="M6398 3923 c7 -3 16 -2 19 1 4 3 -2 6 -13 5 -11 0 -14 -3 -6 -6z"/>
<path d="M6260 3871 c0 -37 31 -122 42 -115 7 5 8 2 3 -5 -8 -15 28 -56 66
-77 26 -13 27 -13 24 18 -2 29 12 79 35 119 7 14 2 18 -28 23 -20 3 -61 17
-89 30 -48 23 -53 23 -53 7z m41 -11 c10 -6 19 -18 19 -28 0 -13 2 -14 9 -3
10 15 31 7 31 -12 0 -7 -4 -6 -10 3 -9 13 -14 8 -12 -12 1 -3 -6 -12 -15 -20
-10 -8 -14 -8 -10 -1 4 6 3 14 -3 18 -5 3 -10 1 -10 -6 0 -17 -10 -6 -14 17
-3 11 -7 27 -11 37 -8 20 -2 21 26 7z"/>
<path d="M6296 3823 c-4 -9 -4 -14 0 -10 4 4 14 1 23 -6 14 -11 15 -10 1 8 -8
11 -15 21 -16 23 -1 2 -5 -5 -8 -15z"/>
<path d="M6466 3841 c-6 -10 97 -111 113 -111 19 0 12 10 -43 66 -57 57 -62
59 -70 45z"/>
<path d="M7075 3600 c0 -26 3 -46 8 -43 4 2 7 22 7 43 0 21 -3 41 -7 43 -5 3
-8 -17 -8 -43z"/>
<path d="M6462 3592 c-21 -6 -15 -12 47 -45 45 -25 81 -37 98 -35 42 5 34 30
-17 55 -53 25 -96 34 -128 25z"/>
<path d="M6916 3563 c-6 -14 -5 -15 5 -6 7 7 10 15 7 18 -3 3 -9 -2 -12 -12z"/>
<path d="M7141 3548 c-13 -22 -12 -22 5 -6 16 16 18 16 31 0 13 -15 13 -14 3
6 -6 12 -14 22 -18 22 -4 0 -13 -10 -21 -22z"/>
<path d="M6072 3490 c-49 -22 -94 -55 -92 -67 3 -17 23 -33 33 -26 6 4 8 0 4
-11 -4 -9 -3 -14 2 -11 10 5 27 -33 22 -49 -1 -5 6 -3 15 5 16 13 16 12 5 -8
-6 -13 -7 -23 -2 -23 5 0 11 5 13 11 2 6 9 -1 16 -16 7 -14 8 -24 3 -20 -5 3
-12 1 -16 -5 -3 -6 4 -10 17 -11 22 0 22 -1 3 -8 -11 -5 -23 -7 -27 -4 -5 2
-8 0 -8 -6 0 -5 -8 -12 -17 -14 -10 -2 -5 -3 11 -1 16 2 61 4 101 4 70 0 73 1
119 41 60 53 61 83 6 167 -22 34 -44 62 -49 62 -5 0 -21 -31 -35 -69 -26 -67
-68 -122 -80 -103 -8 13 20 79 50 119 28 37 30 49 8 57 -27 10 -57 6 -102 -14z
m-62 -71 c0 -11 -4 -18 -10 -14 -5 3 -7 12 -3 20 7 21 13 19 13 -6z"/>
<path d="M7060 3501 c0 -5 -22 -33 -50 -62 -27 -30 -50 -57 -50 -61 0 -4 25
19 55 52 49 53 66 80 50 80 -3 0 -5 -4 -5 -9z"/>
<path d="M6380 3446 c0 -2 8 -10 18 -17 15 -13 16 -12 3 4 -13 16 -21 21 -21
13z"/>
<path d="M6430 3406 c0 -2 8 -10 18 -17 15 -13 16 -12 3 4 -13 16 -21 21 -21
13z"/>
<path d="M7029 3363 c-13 -16 -12 -17 4 -4 9 7 17 15 17 17 0 8 -8 3 -21 -13z"/>
<path d="M6406 3327 c3 -8 11 -14 19 -14 20 0 19 4 -5 17 -15 8 -18 8 -14 -3z"/>
<path d="M6450 3307 c0 -3 20 -12 44 -20 34 -12 48 -13 60 -4 14 10 10 12 -21
12 -21 0 -48 4 -60 8 -13 5 -23 6 -23 4z"/>
<path d="M6065 3290 c-3 -5 -1 -10 4 -10 6 0 11 5 11 10 0 6 -2 10 -4 10 -3 0
-8 -4 -11 -10z"/>
<path d="M6411 3284 c0 -11 3 -14 6 -6 3 7 2 16 -1 19 -3 4 -6 -2 -5 -13z"/>
<path d="M6427 3245 c6 -22 52 -75 64 -75 4 0 -5 13 -19 28 -15 15 -32 37 -39
47 -12 20 -12 20 -6 0z"/>
<path d="M6634 3194 c-19 -15 -19 -15 1 -6 11 5 27 12 35 15 13 5 13 6 -1 6
-8 1 -24 -6 -35 -15z"/>
<path d="M6804 3188 l-19 -23 23 19 c12 11 22 21 22 23 0 8 -8 2 -26 -19z"/>
<path d="M6921 3205 c9 -9 79 -35 79 -30 0 3 -16 13 -35 21 -34 14 -52 18 -44
9z"/>
<path d="M6533 3163 c9 -2 23 -2 30 0 6 3 -1 5 -18 5 -16 0 -22 -2 -12 -5z"/>
<path d="M6655 3134 c-18 -16 -22 -22 -9 -15 18 9 53 42 43 41 -2 -1 -17 -12
-34 -26z"/>
<path d="M6756 3106 c-9 -19 -16 -38 -16 -43 0 -20 -46 -52 -80 -56 l-35 -4
36 -1 c44 -2 70 21 99 84 23 54 21 72 -4 20z"/>
<path d="M6545 3053 c26 -24 54 -43 63 -43 9 0 -5 13 -31 30 -26 16 -47 34
-47 40 0 6 4 9 8 6 4 -2 14 0 22 5 11 6 4 9 -24 7 l-39 -2 48 -43z"/>
<path d="M6647 2730 c-48 -4 -89 -9 -92 -12 -3 -2 18 -134 45 -294 28 -159 50
-292 50 -296 0 -12 -5228 -10 -5235 2 -4 6 -100 10 -256 10 l-251 0 -29 29
c-40 41 -40 91 0 132 l29 29 257 0 c168 0 254 3 250 10 -4 6 13 10 44 10 28 0
51 5 51 10 0 6 -90 10 -251 10 l-251 0 -34 34 c-42 42 -44 75 -5 118 l29 33
256 3 c178 2 256 6 256 14 0 14 -515 2 -542 -13 -23 -12 -48 -61 -48 -94 0
-35 25 -82 53 -97 18 -11 -16 -14 -215 -18 -234 -5 -237 -5 -262 -29 -50 -47
-51 -125 -1 -168 14 -12 25 -25 25 -28 0 -3 -118 -6 -262 -7 -145 -2 286 -5
957 -8 671 -3 2383 -3 3805 0 1422 2 2480 6 2352 8 l-234 2 7 53 c4 28 22 161
41 293 19 133 34 244 34 247 0 19 -398 31 -573 17z"/>
<path d="M4480 2500 c-15 -37 -44 -50 -110 -50 -37 0 -52 -4 -59 -17 -8 -17
-15 -62 -12 -89 1 -16 46 -26 85 -18 27 5 33 10 29 25 -3 12 -14 19 -29 19
-13 0 -24 5 -24 10 0 6 26 10 58 10 69 0 80 6 97 56 21 63 -11 113 -35 54z"/>
<path d="M5464 2484 c-61 -39 -88 -86 -88 -150 0 -48 4 -58 32 -87 29 -29 38
-32 90 -32 47 0 67 5 100 28 51 33 82 91 82 153 0 39 -5 51 -34 80 -30 30 -40
34 -88 34 -41 0 -64 -6 -94 -26z m93 -56 c-3 -13 -9 -41 -13 -63 -10 -58 -21
-75 -50 -75 -38 0 -64 18 -64 43 1 31 23 57 57 66 18 5 29 15 31 29 2 14 10
22 24 22 16 0 19 -5 15 -22z m53 7 c0 -16 -27 -32 -37 -22 -3 4 -3 13 0 22 8
20 37 20 37 0z m-15 -82 c-9 -65 -26 -97 -53 -101 -25 -4 -29 10 -8 27 8 7 17
28 20 49 11 60 16 72 33 72 13 0 14 -8 8 -47z"/>
<path d="M5473 2354 c-3 -8 -1 -20 6 -27 13 -13 16 -10 25 21 6 16 3 22 -9 22
-8 0 -18 -7 -22 -16z"/>
<path d="M2167 1103 c-2 -4 -7 -42 -11 -83 -12 -130 -96 -943 -101 -983 -5
-34 -3 -37 19 -37 22 0 24 6 40 108 142 906 156 996 151 1000 -6 6 -12 -26
-40 -208 -93 -602 -137 -886 -141 -889 -21 -22 -13 77 71 874 22 207 24 238
12 218z"/>
<path d="M2900 1085 c0 -3 -20 -238 -45 -522 -25 -284 -45 -526 -45 -539 0
-19 5 -24 24 -24 22 0 24 5 40 112 28 193 136 963 136 971 0 4 -25 7 -55 7
-30 0 -55 -2 -55 -5z"/>
<path d="M4333 1063 c-40 -4 -42 -6 -38 -31 3 -15 28 -236 55 -492 62 -579 56
-540 85 -540 20 0 22 4 19 38 -2 20 -11 154 -19 297 -9 143 -22 361 -30 484
-8 124 -15 231 -15 238 0 7 -3 12 -7 11 -5 -1 -27 -3 -50 -5z"/>
</g>
</svg>
